<svg width="50" height="67" viewBox="0 0 50 67" fill="none" xmlns="http://www.w3.org/2000/svg">
<g clip-path="url(#clip0_2_493)">
<rect width="50" height="67" rx="5" fill="#009813"/>
<path d="M25.1 61.55C32.4454 61.55 38.4 55.5954 38.4 48.25C38.4 40.9046 32.4454 34.95 25.1 34.95C17.7546 34.95 11.8 40.9046 11.8 48.25C11.8 55.5954 17.7546 61.55 25.1 61.55Z" fill="#004B09"/>
<path d="M36.5 42.55C43.8454 42.55 49.8 36.5954 49.8 29.25C49.8 21.9046 43.8454 15.95 36.5 15.95C29.1546 15.95 23.2 21.9046 23.2 29.25C23.2 36.5954 29.1546 42.55 36.5 42.55Z" fill="#004B09"/>
<path d="M47.9 61.55C55.2454 61.55 61.2 55.5954 61.2 48.25C61.2 40.9046 55.2454 34.95 47.9 34.95C40.5546 34.95 34.6 40.9046 34.6 48.25C34.6 55.5954 40.5546 61.55 47.9 61.55Z" fill="#004B09"/>
<path d="M36.5 43.5C36.5 56.1667 33.3333 65.6667 27 72H46C39.6667 65.6667 36.5 56.1667 36.5 43.5Z" fill="#004B09"/>
<path d="M8.89 33V12.29L4.178 13.544V9.44L11.094 6.4H14.21V33H8.89ZM30.2178 33.456C27.8111 33.456 25.7338 32.8733 23.9858 31.708C22.2378 30.5427 20.8951 28.934 19.9578 26.882C19.0458 24.8047 18.5898 22.4107 18.5898 19.7C18.5898 16.9893 19.0458 14.608 19.9578 12.556C20.8951 10.4787 22.2251 8.85733 23.9478 7.692C25.6958 6.52667 27.7858 5.944 30.2178 5.944C32.6498 5.944 34.7271 6.52667 36.4498 7.692C38.1978 8.85733 39.5278 10.4787 40.4398 12.556C41.3771 14.608 41.8458 16.9893 41.8458 19.7C41.8458 22.4107 41.3771 24.8047 40.4398 26.882C39.5278 28.934 38.1978 30.5427 36.4498 31.708C34.7271 32.8733 32.6498 33.456 30.2178 33.456ZM30.2178 28.858C31.4845 28.858 32.5991 28.4907 33.5618 27.756C34.5245 26.996 35.2718 25.932 35.8038 24.564C36.3611 23.196 36.6398 21.5747 36.6398 19.7C36.6398 17.8 36.3611 16.1787 35.8038 14.836C35.2718 13.468 34.5245 12.4167 33.5618 11.682C32.5991 10.9473 31.4845 10.58 30.2178 10.58C28.9511 10.58 27.8365 10.9473 26.8738 11.682C25.9111 12.4167 25.1511 13.468 24.5938 14.836C24.0618 16.1787 23.7958 17.8 23.7958 19.7C23.7958 21.5747 24.0618 23.196 24.5938 24.564C25.1511 25.932 25.9111 26.996 26.8738 27.756C27.8365 28.4907 28.9511 28.858 30.2178 28.858Z" fill="white"/>
</g>
<rect x="0.5" y="0.5" width="49" height="66" rx="4.5" stroke="#39DE4E"/>
<defs>
<clipPath id="clip0_2_493">
<rect width="50" height="67" rx="5" fill="white"/>
</clipPath>
</defs>
</svg>
