<svg width="50" height="67" viewBox="0 0 50 67" fill="none" xmlns="http://www.w3.org/2000/svg">
<g clip-path="url(#clip0_2_5)">
<rect width="50" height="67" rx="5" fill="#D60000"/>
<g clip-path="url(#clip1_2_5)">
<path d="M62.0113 46.8588L38.5 23.3475L14.9887 46.8588L38.5 70.3701L62.0113 46.8588Z" fill="#980404"/>
<path d="M14.9887 46.8588C21.4812 53.3512 32.0075 53.3512 38.5 46.8588C44.9925 40.3663 44.9925 29.8399 38.5 23.3475C32.0075 16.855 21.4812 16.855 14.9887 23.3475C8.49623 29.8399 8.49623 40.3663 14.9887 46.8588Z" fill="#980404"/>
<path d="M38.5 46.8588C44.9925 53.3512 55.5188 53.3512 62.0113 46.8588C68.5038 40.3663 68.5038 29.8399 62.0113 23.3475C55.5188 16.855 44.9925 16.855 38.5 23.3475C32.0075 29.8399 32.0075 40.3663 38.5 46.8588Z" fill="#980404"/>
</g>
<path d="M5.9 32V28.238C7.52133 26.946 9.092 25.654 10.612 24.362C12.1573 23.07 13.538 21.7907 14.754 20.524C15.97 19.232 16.9327 17.978 17.642 16.762C18.3513 15.546 18.706 14.368 18.706 13.228C18.706 12.5187 18.5793 11.8727 18.326 11.29C18.0727 10.682 17.6673 10.2007 17.11 9.846C16.578 9.466 15.8687 9.276 14.982 9.276C14.0953 9.276 13.348 9.47867 12.74 9.884C12.132 10.2893 11.676 10.834 11.372 11.518C11.068 12.1767 10.916 12.924 10.916 13.76H5.938C6.014 11.8093 6.45733 10.1753 7.268 8.858C8.07867 7.54067 9.168 6.56533 10.536 5.932C11.904 5.27333 13.4367 4.944 15.134 4.944C17.0087 4.944 18.592 5.29867 19.884 6.008C21.176 6.692 22.1513 7.62933 22.81 8.82C23.494 10.0107 23.836 11.3787 23.836 12.924C23.836 14.0893 23.6207 15.2293 23.19 16.344C22.7847 17.4587 22.202 18.548 21.442 19.612C20.7073 20.6507 19.8713 21.6513 18.934 22.614C17.9967 23.5767 17.0213 24.5013 16.008 25.388C14.9947 26.2493 14.0067 27.06 13.044 27.82H24.482V32H5.9Z" fill="white"/>
</g>
<rect x="0.5" y="0.5" width="49" height="66" rx="4.5" stroke="#DB3C3C"/>
<defs>
<clipPath id="clip0_2_5">
<rect width="50" height="67" rx="5" fill="white"/>
</clipPath>
<clipPath id="clip1_2_5">
<rect width="57" height="57" fill="white" transform="translate(10 15)"/>
</clipPath>
</defs>
</svg>
