<svg width="50" height="67" viewBox="0 0 50 67" fill="none" xmlns="http://www.w3.org/2000/svg">
<g clip-path="url(#clip0_2_48)">
<rect width="50" height="67" rx="5" fill="#545454"/>
<g clip-path="url(#clip1_2_48)">
<path d="M19.3475 33.7825L39.5 53.935L59.6525 33.7825L39.5 13.63L19.3475 33.7825Z" fill="#2E2E2E"/>
<path d="M59.6525 33.7825C54.0876 28.2175 45.065 28.2175 39.5 33.7825C33.935 39.3475 33.935 48.3701 39.5 53.9351C45.065 59.5 54.0876 59.5 59.6525 53.9351C65.2175 48.3701 65.2175 39.3475 59.6525 33.7825Z" fill="#2E2E2E"/>
<path d="M39.5 33.7825C33.935 28.2175 24.9124 28.2175 19.3475 33.7825C13.7825 39.3475 13.7825 48.3701 19.3475 53.9351C24.9124 59.5 33.935 59.5 39.5 53.9351C45.065 48.3701 45.065 39.3475 39.5 33.7825Z" fill="#2E2E2E"/>
<path d="M39.5 40.5C39.5 53.1667 36.3333 62.6667 30 69H49C42.6667 62.6667 39.5 53.1667 39.5 40.5Z" fill="#2E2E2E"/>
</g>
<path d="M5.9 32V28.238C7.52133 26.946 9.092 25.654 10.612 24.362C12.1573 23.07 13.538 21.7907 14.754 20.524C15.97 19.232 16.9327 17.978 17.642 16.762C18.3513 15.546 18.706 14.368 18.706 13.228C18.706 12.5187 18.5793 11.8727 18.326 11.29C18.0727 10.682 17.6673 10.2007 17.11 9.846C16.578 9.466 15.8687 9.276 14.982 9.276C14.0953 9.276 13.348 9.47867 12.74 9.884C12.132 10.2893 11.676 10.834 11.372 11.518C11.068 12.1767 10.916 12.924 10.916 13.76H5.938C6.014 11.8093 6.45733 10.1753 7.268 8.858C8.07867 7.54067 9.168 6.56533 10.536 5.932C11.904 5.27333 13.4367 4.944 15.134 4.944C17.0087 4.944 18.592 5.29867 19.884 6.008C21.176 6.692 22.1513 7.62933 22.81 8.82C23.494 10.0107 23.836 11.3787 23.836 12.924C23.836 14.0893 23.6207 15.2293 23.19 16.344C22.7847 17.4587 22.202 18.548 21.442 19.612C20.7073 20.6507 19.8713 21.6513 18.934 22.614C17.9967 23.5767 17.0213 24.5013 16.008 25.388C14.9947 26.2493 14.0067 27.06 13.044 27.82H24.482V32H5.9Z" fill="white"/>
</g>
<rect x="0.5" y="0.5" width="49" height="66" rx="4.5" stroke="#848484"/>
<defs>
<clipPath id="clip0_2_48">
<rect width="50" height="67" rx="5" fill="white"/>
</clipPath>
<clipPath id="clip1_2_48">
<rect width="57" height="57" fill="white" transform="translate(11 12)"/>
</clipPath>
</defs>
</svg>
