<svg width="50" height="67" viewBox="0 0 50 67" fill="none" xmlns="http://www.w3.org/2000/svg">
<g clip-path="url(#clip0_2_232)">
<rect width="50" height="67" rx="5" fill="#203AD1"/>
<path d="M64.3701 44L37.5 17.1299L10.6299 44L37.5 70.8701L64.3701 44Z" fill="#132486"/>
<path d="M14.4 33.456C12.6773 33.456 11.094 33.1393 9.65 32.506C8.206 31.8727 7.05333 30.91 6.192 29.618C5.33067 28.326 4.87467 26.692 4.824 24.716H9.84C9.86533 25.552 10.0553 26.312 10.41 26.996C10.7647 27.6547 11.284 28.1867 11.968 28.592C12.652 28.972 13.4627 29.162 14.4 29.162C15.2867 29.162 16.0467 28.9847 16.68 28.63C17.3133 28.2753 17.7947 27.8067 18.124 27.224C18.4533 26.6413 18.618 25.97 18.618 25.21C18.618 24.3233 18.39 23.5887 17.934 23.006C17.5033 22.398 16.8953 21.942 16.11 21.638C15.35 21.334 14.476 21.182 13.488 21.182H11.512V16.964H13.488C14.7293 16.964 15.768 16.6727 16.604 16.09C17.4653 15.5073 17.896 14.6333 17.896 13.468C17.896 12.5053 17.5793 11.7327 16.946 11.15C16.338 10.5673 15.4767 10.276 14.362 10.276C13.146 10.276 12.196 10.6307 11.512 11.34C10.828 12.0493 10.448 12.9233 10.372 13.962H5.356C5.432 12.29 5.85 10.8587 6.61 9.668C7.39533 8.452 8.44667 7.52733 9.764 6.894C11.0813 6.26067 12.614 5.944 14.362 5.944C16.2113 5.944 17.7693 6.27333 19.036 6.932C20.328 7.56533 21.3033 8.42667 21.962 9.516C22.6207 10.6053 22.95 11.7833 22.95 13.05C22.95 14.0887 22.7473 15.0133 22.342 15.824C21.962 16.6347 21.4427 17.306 20.784 17.838C20.1253 18.37 19.4033 18.75 18.618 18.978C19.606 19.1807 20.4673 19.5733 21.202 20.156C21.962 20.7133 22.5447 21.4353 22.95 22.322C23.3807 23.2087 23.596 24.2347 23.596 25.4C23.596 26.844 23.2413 28.1867 22.532 29.428C21.848 30.644 20.8093 31.6193 19.416 32.354C18.048 33.0887 16.376 33.456 14.4 33.456Z" fill="white"/>
</g>
<rect x="0.5" y="0.5" width="49" height="66" rx="4.5" stroke="#5168F1"/>
<defs>
<clipPath id="clip0_2_232">
<rect width="50" height="67" rx="5" fill="white"/>
</clipPath>
</defs>
</svg>
