<svg width="50" height="67" viewBox="0 0 50 67" fill="none" xmlns="http://www.w3.org/2000/svg">
<g clip-path="url(#clip0_2_261)">
<rect width="50" height="67" rx="5" fill="#009813"/>
<path d="M25.1 61.55C32.4454 61.55 38.4 55.5954 38.4 48.25C38.4 40.9046 32.4454 34.95 25.1 34.95C17.7546 34.95 11.8 40.9046 11.8 48.25C11.8 55.5954 17.7546 61.55 25.1 61.55Z" fill="#004B09"/>
<path d="M36.5 42.55C43.8454 42.55 49.8 36.5954 49.8 29.25C49.8 21.9046 43.8454 15.95 36.5 15.95C29.1546 15.95 23.2 21.9046 23.2 29.25C23.2 36.5954 29.1546 42.55 36.5 42.55Z" fill="#004B09"/>
<path d="M47.9 61.55C55.2454 61.55 61.2 55.5954 61.2 48.25C61.2 40.9046 55.2454 34.95 47.9 34.95C40.5546 34.95 34.6 40.9046 34.6 48.25C34.6 55.5954 40.5546 61.55 47.9 61.55Z" fill="#004B09"/>
<path d="M36.5 43.5C36.5 56.1667 33.3333 65.6667 27 72H46C39.6667 65.6667 36.5 56.1667 36.5 43.5Z" fill="#004B09"/>
<path d="M17.782 33V28.174H4.71V24.108L17.098 6.4H22.912V23.728H26.37V28.174H22.912V33H17.782ZM10.182 23.728H18.124V12.062L10.182 23.728Z" fill="white"/>
</g>
<rect x="0.5" y="0.5" width="49" height="66" rx="4.5" stroke="#39DE4E"/>
<defs>
<clipPath id="clip0_2_261">
<rect width="50" height="67" rx="5" fill="white"/>
</clipPath>
</defs>
</svg>
