<svg width="50" height="67" viewBox="0 0 50 67" fill="none" xmlns="http://www.w3.org/2000/svg">
<g clip-path="url(#clip0_2_286)">
<rect width="50" height="67" rx="5" fill="#203AD1"/>
<path d="M64.3701 44L37.5 17.1299L10.6299 44L37.5 70.8701L64.3701 44Z" fill="#132486"/>
<path d="M15.122 33.456C13.1967 33.456 11.5247 33.114 10.106 32.43C8.71267 31.746 7.62333 30.8087 6.838 29.618C6.05267 28.4273 5.59667 27.072 5.47 25.552H10.486C10.6633 26.54 11.17 27.376 12.006 28.06C12.842 28.744 13.8933 29.086 15.16 29.086C16.072 29.086 16.87 28.858 17.554 28.402C18.238 27.946 18.77 27.338 19.15 26.578C19.53 25.7927 19.72 24.906 19.72 23.918C19.72 22.9047 19.5173 22.0307 19.112 21.296C18.732 20.5613 18.2 19.9913 17.516 19.586C16.8573 19.1807 16.0973 18.978 15.236 18.978C14.1467 18.978 13.2093 19.244 12.424 19.776C11.664 20.2827 11.1193 20.9033 10.79 21.638H5.812L8.016 6.4H22.95V10.884H11.816L10.714 16.812C11.2713 16.2293 12.0187 15.7607 12.956 15.406C13.8933 15.026 14.9447 14.836 16.11 14.836C17.554 14.836 18.808 15.0893 19.872 15.596C20.936 16.0773 21.8227 16.7487 22.532 17.61C23.2413 18.446 23.7733 19.4087 24.128 20.498C24.4827 21.562 24.66 22.6893 24.66 23.88C24.66 25.2733 24.4193 26.5527 23.938 27.718C23.482 28.8833 22.8233 29.8967 21.962 30.758C21.126 31.6193 20.1253 32.2907 18.96 32.772C17.82 33.228 16.5407 33.456 15.122 33.456Z" fill="white"/>
</g>
<rect x="0.5" y="0.5" width="49" height="66" rx="4.5" stroke="#5168F1"/>
<defs>
<clipPath id="clip0_2_286">
<rect width="50" height="67" rx="5" fill="white"/>
</clipPath>
</defs>
</svg>
