<svg width="50" height="67" viewBox="0 0 50 67" fill="none" xmlns="http://www.w3.org/2000/svg">
<g clip-path="url(#clip0_2_315)">
<rect width="50" height="67" rx="5" fill="#009813"/>
<path d="M25.1 61.55C32.4454 61.55 38.4 55.5954 38.4 48.25C38.4 40.9046 32.4454 34.95 25.1 34.95C17.7546 34.95 11.8 40.9046 11.8 48.25C11.8 55.5954 17.7546 61.55 25.1 61.55Z" fill="#004B09"/>
<path d="M36.5 42.55C43.8454 42.55 49.8 36.5954 49.8 29.25C49.8 21.9046 43.8454 15.95 36.5 15.95C29.1546 15.95 23.2 21.9046 23.2 29.25C23.2 36.5954 29.1546 42.55 36.5 42.55Z" fill="#004B09"/>
<path d="M47.9 61.55C55.2454 61.55 61.2 55.5954 61.2 48.25C61.2 40.9046 55.2454 34.95 47.9 34.95C40.5546 34.95 34.6 40.9046 34.6 48.25C34.6 55.5954 40.5546 61.55 47.9 61.55Z" fill="#004B09"/>
<path d="M36.5 43.5C36.5 56.1667 33.3333 65.6667 27 72H46C39.6667 65.6667 36.5 56.1667 36.5 43.5Z" fill="#004B09"/>
<path d="M15.616 33.456C13.6147 33.456 11.9173 33.0887 10.524 32.354C9.156 31.6193 8.054 30.6313 7.218 29.39C6.40733 28.1487 5.812 26.768 5.432 25.248C5.07733 23.7027 4.9 22.1447 4.9 20.574C4.9 17.5847 5.318 15.0007 6.154 12.822C6.99 10.6433 8.19333 8.95867 9.764 7.768C11.3347 6.552 13.2347 5.944 15.464 5.944C17.3387 5.944 18.922 6.31133 20.214 7.046C21.506 7.75533 22.5067 8.69267 23.216 9.858C23.9253 11.0233 24.3433 12.2773 24.47 13.62H19.682C19.4793 12.5053 19.0107 11.6567 18.276 11.074C17.5413 10.466 16.5913 10.162 15.426 10.162C14.3367 10.162 13.3867 10.4913 12.576 11.15C11.7653 11.8087 11.132 12.7967 10.676 14.114C10.2453 15.4313 9.992 17.0907 9.916 19.092C9.916 19.1173 9.916 19.1553 9.916 19.206C9.916 19.2567 9.916 19.2947 9.916 19.32C10.3213 18.636 10.8533 18.028 11.512 17.496C12.1707 16.964 12.9307 16.546 13.792 16.242C14.6533 15.938 15.5653 15.786 16.528 15.786C17.9973 15.786 19.3653 16.1407 20.632 16.85C21.8987 17.5593 22.9247 18.56 23.71 19.852C24.4953 21.144 24.888 22.6767 24.888 24.45C24.888 26.046 24.4953 27.5407 23.71 28.934C22.95 30.302 21.8733 31.404 20.48 32.24C19.0867 33.0507 17.4653 33.456 15.616 33.456ZM15.312 29.048C16.224 29.048 17.022 28.858 17.706 28.478C18.4153 28.098 18.9727 27.5787 19.378 26.92C19.7833 26.236 19.986 25.4633 19.986 24.602C19.986 23.69 19.7833 22.9047 19.378 22.246C18.9727 21.5873 18.4153 21.068 17.706 20.688C16.9967 20.308 16.186 20.118 15.274 20.118C14.3873 20.118 13.5893 20.308 12.88 20.688C12.1707 21.068 11.6007 21.6 11.17 22.284C10.7647 22.9427 10.562 23.7027 10.562 24.564C10.562 25.4507 10.7647 26.236 11.17 26.92C11.6007 27.5787 12.1707 28.098 12.88 28.478C13.6147 28.858 14.4253 29.048 15.312 29.048Z" fill="white"/>
</g>
<rect x="0.5" y="0.5" width="49" height="66" rx="4.5" stroke="#39DE4E"/>
<defs>
<clipPath id="clip0_2_315">
<rect width="50" height="67" rx="5" fill="white"/>
</clipPath>
</defs>
</svg>
