<svg width="50" height="67" viewBox="0 0 50 67" fill="none" xmlns="http://www.w3.org/2000/svg">
<g clip-path="url(#clip0_2_391)">
<rect width="50" height="67" rx="5" fill="#D60000"/>
<g clip-path="url(#clip1_2_391)">
<path d="M62.0113 46.8588L38.5 23.3475L14.9887 46.8588L38.5 70.3701L62.0113 46.8588Z" fill="#980404"/>
<path d="M14.9887 46.8588C21.4812 53.3512 32.0075 53.3512 38.5 46.8588C44.9925 40.3663 44.9925 29.8399 38.5 23.3475C32.0075 16.855 21.4812 16.855 14.9887 23.3475C8.49624 29.8399 8.49624 40.3663 14.9887 46.8588Z" fill="#980404"/>
<path d="M38.5 46.8588C44.9925 53.3512 55.5188 53.3512 62.0113 46.8588C68.5038 40.3663 68.5038 29.8399 62.0113 23.3475C55.5188 16.855 44.9925 16.855 38.5 23.3475C32.0075 29.8399 32.0075 40.3663 38.5 46.8588Z" fill="#980404"/>
</g>
<path d="M15.008 33.456C13.2093 33.456 11.5627 33.1267 10.068 32.468C8.59867 31.8093 7.43333 30.8847 6.572 29.694C5.71067 28.5033 5.28 27.1227 5.28 25.552C5.28 24.4627 5.45733 23.4747 5.812 22.588C6.192 21.7013 6.71133 20.916 7.37 20.232C8.02867 19.548 8.814 19.0287 9.726 18.674C8.586 18.142 7.66133 17.382 6.952 16.394C6.268 15.406 5.926 14.2913 5.926 13.05C5.926 11.8087 6.268 10.6433 6.952 9.554C7.636 8.46467 8.64933 7.59067 9.992 6.932C11.3347 6.27333 13.0067 5.944 15.008 5.944C17.0093 5.944 18.6813 6.27333 20.024 6.932C21.3667 7.59067 22.38 8.46467 23.064 9.554C23.748 10.6433 24.09 11.8087 24.09 13.05C24.09 14.266 23.7353 15.3807 23.026 16.394C22.342 17.382 21.43 18.142 20.29 18.674C21.202 19.054 21.9873 19.586 22.646 20.27C23.33 20.9287 23.8493 21.7013 24.204 22.588C24.584 23.4747 24.774 24.4627 24.774 25.552C24.774 27.1227 24.3307 28.5033 23.444 29.694C22.5827 30.8847 21.4173 31.8093 19.948 32.468C18.4787 33.1267 16.832 33.456 15.008 33.456ZM15.008 29.162C16.5787 29.162 17.7567 28.782 18.542 28.022C19.3273 27.262 19.72 26.2993 19.72 25.134C19.72 23.842 19.302 22.8287 18.466 22.094C17.6553 21.334 16.5027 20.954 15.008 20.954C13.5387 20.954 12.3733 21.334 11.512 22.094C10.676 22.8287 10.258 23.842 10.258 25.134C10.258 26.2993 10.6633 27.262 11.474 28.022C12.2847 28.782 13.4627 29.162 15.008 29.162ZM15.008 17.192C16.3 17.192 17.288 16.8627 17.972 16.204C18.6813 15.5453 19.036 14.6967 19.036 13.658C19.036 12.5433 18.6813 11.682 17.972 11.074C17.288 10.4407 16.3 10.124 15.008 10.124C13.7413 10.124 12.7533 10.4407 12.044 11.074C11.3347 11.682 10.98 12.556 10.98 13.696C10.98 14.7093 11.3347 15.5453 12.044 16.204C12.7533 16.8627 13.7413 17.192 15.008 17.192Z" fill="white"/>
</g>
<rect x="0.5" y="0.5" width="49" height="66" rx="4.5" stroke="#DB3C3C"/>
<defs>
<clipPath id="clip0_2_391">
<rect width="50" height="67" rx="5" fill="white"/>
</clipPath>
<clipPath id="clip1_2_391">
<rect width="57" height="57" fill="white" transform="translate(10 15)"/>
</clipPath>
</defs>
</svg>
