<svg width="50" height="67" viewBox="0 0 50 67" fill="none" xmlns="http://www.w3.org/2000/svg">
<g clip-path="url(#clip0_2_421)">
<rect width="50" height="67" rx="5" fill="#009813"/>
<path d="M25.1 61.55C32.4454 61.55 38.4 55.5954 38.4 48.25C38.4 40.9046 32.4454 34.95 25.1 34.95C17.7546 34.95 11.8 40.9046 11.8 48.25C11.8 55.5954 17.7546 61.55 25.1 61.55Z" fill="#004B09"/>
<path d="M36.5 42.55C43.8454 42.55 49.8 36.5954 49.8 29.25C49.8 21.9046 43.8454 15.95 36.5 15.95C29.1546 15.95 23.2 21.9046 23.2 29.25C23.2 36.5954 29.1546 42.55 36.5 42.55Z" fill="#004B09"/>
<path d="M47.9 61.55C55.2454 61.55 61.2 55.5954 61.2 48.25C61.2 40.9046 55.2454 34.95 47.9 34.95C40.5546 34.95 34.6 40.9046 34.6 48.25C34.6 55.5954 40.5546 61.55 47.9 61.55Z" fill="#004B09"/>
<path d="M36.5 43.5C36.5 56.1667 33.3333 65.6667 27 72H46C39.6667 65.6667 36.5 56.1667 36.5 43.5Z" fill="#004B09"/>
<path d="M14.628 33.456C12.7787 33.456 11.208 33.1013 9.916 32.392C8.624 31.6573 7.62333 30.7073 6.914 29.542C6.23 28.3767 5.812 27.1227 5.66 25.78H10.448C10.676 26.8947 11.1447 27.756 11.854 28.364C12.5887 28.9467 13.5387 29.238 14.704 29.238C15.7933 29.238 16.7307 28.9213 17.516 28.288C18.3267 27.6293 18.96 26.654 19.416 25.362C19.872 24.0447 20.1253 22.4233 20.176 20.498C20.176 20.422 20.176 20.346 20.176 20.27C20.176 20.194 20.176 20.1307 20.176 20.08C19.8213 20.7387 19.302 21.3467 18.618 21.904C17.934 22.436 17.1613 22.854 16.3 23.158C15.464 23.462 14.5647 23.614 13.602 23.614C12.158 23.614 10.79 23.2593 9.498 22.55C8.206 21.8407 7.16733 20.84 6.382 19.548C5.59667 18.256 5.204 16.7233 5.204 14.95C5.204 13.3287 5.59667 11.834 6.382 10.466C7.16733 9.098 8.25667 8.00867 9.65 7.198C11.0433 6.362 12.652 5.944 14.476 5.944C16.5027 5.944 18.2 6.31133 19.568 7.046C20.936 7.78067 22.0253 8.76867 22.836 10.01C23.672 11.2513 24.2673 12.6447 24.622 14.19C25.002 15.71 25.192 17.2553 25.192 18.826C25.192 21.79 24.774 24.374 23.938 26.578C23.1273 28.7567 21.9367 30.454 20.366 31.67C18.7953 32.8607 16.8827 33.456 14.628 33.456ZM14.818 19.282C15.73 19.282 16.528 19.092 17.212 18.712C17.9213 18.332 18.4787 17.8127 18.884 17.154C19.3147 16.47 19.53 15.6973 19.53 14.836C19.53 13.9493 19.3147 13.164 18.884 12.48C18.4787 11.796 17.9213 11.2767 17.212 10.922C16.5027 10.542 15.692 10.352 14.78 10.352C13.8933 10.352 13.0953 10.542 12.386 10.922C11.6767 11.302 11.1193 11.8213 10.714 12.48C10.334 13.1387 10.144 13.9113 10.144 14.798C10.144 15.6847 10.334 16.47 10.714 17.154C11.1193 17.8127 11.6767 18.332 12.386 18.712C13.0953 19.092 13.906 19.282 14.818 19.282Z" fill="white"/>
</g>
<rect x="0.5" y="0.5" width="49" height="66" rx="4.5" stroke="#39DE4E"/>
<defs>
<clipPath id="clip0_2_421">
<rect width="50" height="67" rx="5" fill="white"/>
</clipPath>
</defs>
</svg>
