<svg width="50" height="67" viewBox="0 0 50 67" fill="none" xmlns="http://www.w3.org/2000/svg">
<g clip-path="url(#clip0_2_420)">
<rect width="50" height="67" rx="5" fill="#545454"/>
<g clip-path="url(#clip1_2_420)">
<path d="M19.3475 33.7825L39.5 53.935L59.6525 33.7825L39.5 13.63L19.3475 33.7825Z" fill="#2E2E2E"/>
<path d="M59.6526 33.7825C54.0876 28.2175 45.065 28.2175 39.5 33.7825C33.9351 39.3475 33.9351 48.3701 39.5 53.9351C45.065 59.5 54.0876 59.5 59.6526 53.9351C65.2175 48.3701 65.2175 39.3475 59.6526 33.7825Z" fill="#2E2E2E"/>
<path d="M39.5 33.7825C33.935 28.2175 24.9124 28.2175 19.3474 33.7825C13.7825 39.3475 13.7825 48.3701 19.3474 53.9351C24.9124 59.5 33.935 59.5 39.5 53.9351C45.0649 48.3701 45.0649 39.3475 39.5 33.7825Z" fill="#2E2E2E"/>
<path d="M39.5 40.5C39.5 53.1667 36.3333 62.6667 30 69H49C42.6667 62.6667 39.5 53.1667 39.5 40.5Z" fill="#2E2E2E"/>
</g>
<path d="M14.628 33.456C12.7787 33.456 11.208 33.1013 9.916 32.392C8.624 31.6573 7.62333 30.7073 6.914 29.542C6.23 28.3767 5.812 27.1227 5.66 25.78H10.448C10.676 26.8947 11.1447 27.756 11.854 28.364C12.5887 28.9467 13.5387 29.238 14.704 29.238C15.7933 29.238 16.7307 28.9213 17.516 28.288C18.3267 27.6293 18.96 26.654 19.416 25.362C19.872 24.0447 20.1253 22.4233 20.176 20.498C20.176 20.422 20.176 20.346 20.176 20.27C20.176 20.194 20.176 20.1307 20.176 20.08C19.8213 20.7387 19.302 21.3467 18.618 21.904C17.934 22.436 17.1613 22.854 16.3 23.158C15.464 23.462 14.5647 23.614 13.602 23.614C12.158 23.614 10.79 23.2593 9.498 22.55C8.206 21.8407 7.16733 20.84 6.382 19.548C5.59667 18.256 5.204 16.7233 5.204 14.95C5.204 13.3287 5.59667 11.834 6.382 10.466C7.16733 9.098 8.25667 8.00867 9.65 7.198C11.0433 6.362 12.652 5.944 14.476 5.944C16.5027 5.944 18.2 6.31133 19.568 7.046C20.936 7.78067 22.0253 8.76867 22.836 10.01C23.672 11.2513 24.2673 12.6447 24.622 14.19C25.002 15.71 25.192 17.2553 25.192 18.826C25.192 21.79 24.774 24.374 23.938 26.578C23.1273 28.7567 21.9367 30.454 20.366 31.67C18.7953 32.8607 16.8827 33.456 14.628 33.456ZM14.818 19.282C15.73 19.282 16.528 19.092 17.212 18.712C17.9213 18.332 18.4787 17.8127 18.884 17.154C19.3147 16.47 19.53 15.6973 19.53 14.836C19.53 13.9493 19.3147 13.164 18.884 12.48C18.4787 11.796 17.9213 11.2767 17.212 10.922C16.5027 10.542 15.692 10.352 14.78 10.352C13.8933 10.352 13.0953 10.542 12.386 10.922C11.6767 11.302 11.1193 11.8213 10.714 12.48C10.334 13.1387 10.144 13.9113 10.144 14.798C10.144 15.6847 10.334 16.47 10.714 17.154C11.1193 17.8127 11.6767 18.332 12.386 18.712C13.0953 19.092 13.906 19.282 14.818 19.282Z" fill="white"/>
</g>
<rect x="0.5" y="0.5" width="49" height="66" rx="4.5" stroke="#848484"/>
<defs>
<clipPath id="clip0_2_420">
<rect width="50" height="67" rx="5" fill="white"/>
</clipPath>
<clipPath id="clip1_2_420">
<rect width="57" height="57" fill="white" transform="translate(11 12)"/>
</clipPath>
</defs>
</svg>
