<svg width="50" height="67" viewBox="0 0 50 67" fill="none" xmlns="http://www.w3.org/2000/svg">
<rect x="0.5" y="0.5" width="49" height="66" rx="4.5" fill="#143854"/>
<rect x="0.5" y="0.5" width="49" height="66" rx="4.5" stroke="#537D9E"/>
<path d="M29.6444 37.6793C32.5375 35.9803 34.4524 33.4579 35.9449 30.5032C36.5472 30.9966 36.8895 31.5989 37.2958 32.1393C39.4236 34.9685 41.5341 37.8107 43.6505 40.6485C44.1456 41.3125 44.1539 41.371 43.4209 41.7693C38.0707 44.676 32.7926 44.5578 27.6021 41.3513C26.6818 40.7828 25.8461 40.0987 25.0236 39.3363C24.5118 39.7522 24.022 40.1727 23.5094 40.5631C20.4297 42.9085 16.976 44.0804 13.0907 43.7917C10.7819 43.6202 8.59437 42.9945 6.59503 41.7887C5.84682 41.3375 5.84609 41.3133 6.35959 40.6264C8.74704 37.4326 11.1333 34.2379 13.5225 31.0455C13.6534 30.8706 13.7526 30.6557 13.9934 30.5881C14.2216 30.6942 14.2719 30.9292 14.3751 31.1209C15.6547 33.4972 17.2455 35.6051 19.5004 37.1509C20.876 38.0939 22.38 38.6929 24.0349 38.9051C24.1082 38.9145 24.184 38.9127 24.2578 38.906C24.3106 38.9012 24.3619 38.8793 24.4786 38.8474C24.0715 38.3366 23.6737 37.8604 23.3006 37.3655C21.4254 34.8785 20.3714 32.0888 20.1457 28.9695C19.9024 25.6078 20.77 22.4762 22.0161 19.418C22.7204 17.6895 23.5752 16.0337 24.5769 14.4567C24.6854 14.2859 24.7645 14.0894 24.9775 14C25.218 14.0275 25.2904 14.243 25.3924 14.408C27.3358 17.552 28.8511 20.8796 29.5559 24.5293C30.5847 29.8569 29.3078 34.5637 25.6676 38.6062C25.6189 38.6602 25.5766 38.72 25.5287 38.7804C26.1875 39.0524 27.8944 38.5956 29.6444 37.6793Z" fill="#537D9E"/>
<path d="M32.4254 51.98C27.4562 52 22.5183 52 17.5804 52C17.5655 51.9504 17.5506 51.9008 17.5357 51.8512C21.4136 49.6319 23.9179 46.4287 24.9054 42.1607C25.2214 42.1961 25.1943 42.4312 25.2257 42.5825C25.7367 45.042 27.0163 47.1007 28.7152 48.943C29.7284 50.0417 30.8544 51.002 32.2381 51.6469C32.3626 51.7049 32.5448 51.7506 32.4254 51.98Z" fill="#537D9E"/>
</svg>
