<svg width="50" height="67" viewBox="0 0 50 67" fill="none" xmlns="http://www.w3.org/2000/svg">
<g clip-path="url(#clip0_2_520)">
<rect width="50" height="67" rx="5" fill="#009813"/>
<path d="M25.1 61.55C32.4454 61.55 38.4 55.5954 38.4 48.25C38.4 40.9046 32.4454 34.95 25.1 34.95C17.7546 34.95 11.8 40.9046 11.8 48.25C11.8 55.5954 17.7546 61.55 25.1 61.55Z" fill="#004B09"/>
<path d="M36.5 42.55C43.8454 42.55 49.8 36.5954 49.8 29.25C49.8 21.9046 43.8454 15.95 36.5 15.95C29.1546 15.95 23.2 21.9046 23.2 29.25C23.2 36.5954 29.1546 42.55 36.5 42.55Z" fill="#004B09"/>
<path d="M47.9 61.55C55.2454 61.55 61.2 55.5954 61.2 48.25C61.2 40.9046 55.2454 34.95 47.9 34.95C40.5546 34.95 34.6 40.9046 34.6 48.25C34.6 55.5954 40.5546 61.55 47.9 61.55Z" fill="#004B09"/>
<path d="M36.5 43.5C36.5 56.1667 33.3333 65.6667 27 72H46C39.6667 65.6667 36.5 56.1667 36.5 43.5Z" fill="#004B09"/>
<path d="M12.728 33.456C11.0053 33.456 9.48533 33.1267 8.168 32.468C6.876 31.8093 5.87533 30.8467 5.166 29.58C4.45667 28.288 4.102 26.73 4.102 24.906H9.232C9.232 25.7167 9.346 26.426 9.574 27.034C9.82733 27.6167 10.1947 28.0727 10.676 28.402C11.1827 28.706 11.8287 28.858 12.614 28.858C13.374 28.858 13.982 28.7187 14.438 28.44C14.9193 28.136 15.2613 27.718 15.464 27.186C15.692 26.6287 15.806 25.97 15.806 25.21V6.4H20.936V25.21C20.936 27.87 20.1887 29.9093 18.694 31.328C17.2247 32.7467 15.236 33.456 12.728 33.456Z" fill="white"/>
</g>
<rect x="0.5" y="0.5" width="49" height="66" rx="4.5" stroke="#39DE4E"/>
<defs>
<clipPath id="clip0_2_520">
<rect width="50" height="67" rx="5" fill="white"/>
</clipPath>
</defs>
</svg>
