<svg width="50" height="67" viewBox="0 0 50 67" fill="none" xmlns="http://www.w3.org/2000/svg">
<g clip-path="url(#clip0_2_518)">
<rect width="50" height="67" rx="5" fill="#203AD1"/>
<path d="M64.3701 44L37.5 17.1299L10.6299 44L37.5 70.8701L64.3701 44Z" fill="#132486"/>
<path d="M12.728 33.456C11.0053 33.456 9.48533 33.1267 8.168 32.468C6.876 31.8093 5.87533 30.8467 5.166 29.58C4.45667 28.288 4.102 26.73 4.102 24.906H9.232C9.232 25.7167 9.346 26.426 9.574 27.034C9.82733 27.6167 10.1947 28.0727 10.676 28.402C11.1827 28.706 11.8287 28.858 12.614 28.858C13.374 28.858 13.982 28.7187 14.438 28.44C14.9193 28.136 15.2613 27.718 15.464 27.186C15.692 26.6287 15.806 25.97 15.806 25.21V6.4H20.936V25.21C20.936 27.87 20.1887 29.9093 18.694 31.328C17.2247 32.7467 15.236 33.456 12.728 33.456Z" fill="white"/>
</g>
<rect x="0.5" y="0.5" width="49" height="66" rx="4.5" stroke="#5168F1"/>
<defs>
<clipPath id="clip0_2_518">
<rect width="50" height="67" rx="5" fill="white"/>
</clipPath>
</defs>
</svg>
