<svg width="50" height="67" viewBox="0 0 50 67" fill="none" xmlns="http://www.w3.org/2000/svg">
<g clip-path="url(#clip0_2_517)">
<rect width="50" height="67" rx="5" fill="#D60000"/>
<g clip-path="url(#clip1_2_517)">
<path d="M62.0113 46.8588L38.5 23.3475L14.9887 46.8588L38.5 70.3701L62.0113 46.8588Z" fill="#980404"/>
<path d="M14.9887 46.8588C21.4811 53.3512 32.0075 53.3512 38.5 46.8588C44.9924 40.3663 44.9924 29.8399 38.5 23.3475C32.0075 16.855 21.4811 16.855 14.9887 23.3475C8.49621 29.8399 8.49621 40.3663 14.9887 46.8588Z" fill="#980404"/>
<path d="M38.5 46.8588C44.9925 53.3512 55.5189 53.3512 62.0113 46.8588C68.5038 40.3663 68.5038 29.8399 62.0113 23.3475C55.5189 16.855 44.9925 16.855 38.5 23.3475C32.0076 29.8399 32.0076 40.3663 38.5 46.8588Z" fill="#980404"/>
</g>
<path d="M12.728 33.456C11.0053 33.456 9.48533 33.1267 8.168 32.468C6.876 31.8093 5.87533 30.8467 5.166 29.58C4.45667 28.288 4.102 26.73 4.102 24.906H9.232C9.232 25.7167 9.346 26.426 9.574 27.034C9.82733 27.6167 10.1947 28.0727 10.676 28.402C11.1827 28.706 11.8287 28.858 12.614 28.858C13.374 28.858 13.982 28.7187 14.438 28.44C14.9193 28.136 15.2613 27.718 15.464 27.186C15.692 26.6287 15.806 25.97 15.806 25.21V6.4H20.936V25.21C20.936 27.87 20.1887 29.9093 18.694 31.328C17.2247 32.7467 15.236 33.456 12.728 33.456Z" fill="white"/>
</g>
<rect x="0.5" y="0.5" width="49" height="66" rx="4.5" stroke="#DB3C3C"/>
<defs>
<clipPath id="clip0_2_517">
<rect width="50" height="67" rx="5" fill="white"/>
</clipPath>
<clipPath id="clip1_2_517">
<rect width="57" height="57" fill="white" transform="translate(10 15)"/>
</clipPath>
</defs>
</svg>
