<svg width="50" height="67" viewBox="0 0 50 67" fill="none" xmlns="http://www.w3.org/2000/svg">
<g clip-path="url(#clip0_2_620)">
<rect width="50" height="67" rx="5" fill="#D60000"/>
<g clip-path="url(#clip1_2_620)">
<path d="M62.0113 46.8588L38.5 23.3475L14.9887 46.8588L38.5 70.3701L62.0113 46.8588Z" fill="#980404"/>
<path d="M14.9887 46.8588C21.4811 53.3512 32.0075 53.3512 38.5 46.8588C44.9924 40.3663 44.9924 29.8399 38.5 23.3475C32.0075 16.855 21.4811 16.855 14.9887 23.3475C8.49621 29.8399 8.49621 40.3663 14.9887 46.8588Z" fill="#980404"/>
<path d="M38.5 46.8588C44.9925 53.3512 55.5189 53.3512 62.0113 46.8588C68.5038 40.3663 68.5038 29.8399 62.0113 23.3475C55.5189 16.855 44.9925 16.855 38.5 23.3475C32.0076 29.8399 32.0076 40.3663 38.5 46.8588Z" fill="#980404"/>
</g>
<path d="M5.622 33V6.4H10.752V16.926L20.366 6.4H26.674L16.908 16.926L26.978 33H20.708L13.222 20.916L10.752 23.576V33H5.622Z" fill="white"/>
</g>
<rect x="0.5" y="0.5" width="49" height="66" rx="4.5" stroke="#DB3C3C"/>
<defs>
<clipPath id="clip0_2_620">
<rect width="50" height="67" rx="5" fill="white"/>
</clipPath>
<clipPath id="clip1_2_620">
<rect width="57" height="57" fill="white" transform="translate(10 15)"/>
</clipPath>
</defs>
</svg>
