<svg width="50" height="67" viewBox="0 0 50 67" fill="none" xmlns="http://www.w3.org/2000/svg">
<g clip-path="url(#clip0_2_622)">
<rect width="50" height="67" rx="5" fill="#545454"/>
<g clip-path="url(#clip1_2_622)">
<path d="M19.3475 33.7825L39.5 53.935L59.6525 33.7825L39.5 13.63L19.3475 33.7825Z" fill="#2E2E2E"/>
<path d="M59.6526 33.7825C54.0876 28.2175 45.065 28.2175 39.5 33.7825C33.9351 39.3475 33.9351 48.3701 39.5 53.9351C45.065 59.5 54.0876 59.5 59.6526 53.9351C65.2175 48.3701 65.2175 39.3475 59.6526 33.7825Z" fill="#2E2E2E"/>
<path d="M39.5 33.7825C33.935 28.2175 24.9124 28.2175 19.3474 33.7825C13.7825 39.3475 13.7825 48.3701 19.3474 53.9351C24.9124 59.5 33.935 59.5 39.5 53.9351C45.0649 48.3701 45.0649 39.3475 39.5 33.7825Z" fill="#2E2E2E"/>
<path d="M39.5 40.5C39.5 53.1667 36.3333 62.6667 30 69H49C42.6667 62.6667 39.5 53.1667 39.5 40.5Z" fill="#2E2E2E"/>
</g>
<path d="M5.622 33V6.4H10.752V16.926L20.366 6.4H26.674L16.908 16.926L26.978 33H20.708L13.222 20.916L10.752 23.576V33H5.622Z" fill="white"/>
</g>
<rect x="0.5" y="0.5" width="49" height="66" rx="4.5" stroke="#848484"/>
<defs>
<clipPath id="clip0_2_622">
<rect width="50" height="67" rx="5" fill="white"/>
</clipPath>
<clipPath id="clip1_2_622">
<rect width="57" height="57" fill="white" transform="translate(11 12)"/>
</clipPath>
</defs>
</svg>
