<svg width="50" height="67" viewBox="0 0 50 67" fill="none" xmlns="http://www.w3.org/2000/svg">
<g clip-path="url(#clip0_2_596)">
<rect width="50" height="67" rx="5" fill="#009813"/>
<path d="M25.1 61.55C32.4454 61.55 38.4 55.5954 38.4 48.25C38.4 40.9046 32.4454 34.95 25.1 34.95C17.7546 34.95 11.8 40.9046 11.8 48.25C11.8 55.5954 17.7546 61.55 25.1 61.55Z" fill="#004B09"/>
<path d="M36.5 42.55C43.8454 42.55 49.8 36.5954 49.8 29.25C49.8 21.9046 43.8454 15.95 36.5 15.95C29.1546 15.95 23.2 21.9046 23.2 29.25C23.2 36.5954 29.1546 42.55 36.5 42.55Z" fill="#004B09"/>
<path d="M47.9 61.55C55.2454 61.55 61.2 55.5954 61.2 48.25C61.2 40.9046 55.2454 34.95 47.9 34.95C40.5546 34.95 34.6 40.9046 34.6 48.25C34.6 55.5954 40.5546 61.55 47.9 61.55Z" fill="#004B09"/>
<path d="M36.5 43.5C36.5 56.1667 33.3333 65.6667 27 72H46C39.6667 65.6667 36.5 56.1667 36.5 43.5Z" fill="#004B09"/>
<path d="M24.166 37.18L14.476 21.942H20.366L30.284 37.18H24.166ZM17.896 33.456C15.312 33.456 13.032 32.8733 11.056 31.708C9.08 30.5427 7.53467 28.934 6.42 26.882C5.30533 24.8047 4.748 22.4107 4.748 19.7C4.748 16.9893 5.30533 14.608 6.42 12.556C7.53467 10.4787 9.08 8.85733 11.056 7.692C13.032 6.52667 15.312 5.944 17.896 5.944C20.5053 5.944 22.798 6.52667 24.774 7.692C26.75 8.85733 28.2827 10.4787 29.372 12.556C30.4867 14.608 31.044 16.9893 31.044 19.7C31.044 22.4107 30.4867 24.8047 29.372 26.882C28.2827 28.934 26.75 30.5427 24.774 31.708C22.798 32.8733 20.5053 33.456 17.896 33.456ZM17.896 28.858C19.5173 28.858 20.9107 28.4907 22.076 27.756C23.2667 26.996 24.1913 25.932 24.85 24.564C25.5087 23.196 25.838 21.5747 25.838 19.7C25.838 17.8 25.5087 16.1787 24.85 14.836C24.1913 13.468 23.2667 12.4167 22.076 11.682C20.9107 10.9473 19.5173 10.58 17.896 10.58C16.3 10.58 14.9067 10.9473 13.716 11.682C12.5253 12.4167 11.6007 13.468 10.942 14.836C10.2833 16.1787 9.954 17.8 9.954 19.7C9.954 21.5747 10.2833 23.196 10.942 24.564C11.6007 25.932 12.5253 26.996 13.716 27.756C14.9067 28.4907 16.3 28.858 17.896 28.858Z" fill="white"/>
</g>
<rect x="0.5" y="0.5" width="49" height="66" rx="4.5" stroke="#39DE4E"/>
<defs>
<clipPath id="clip0_2_596">
<rect width="50" height="67" rx="5" fill="white"/>
</clipPath>
</defs>
</svg>
