<svg width="50" height="67" viewBox="0 0 50 67" fill="none" xmlns="http://www.w3.org/2000/svg">
<g clip-path="url(#clip0_2_594)">
<rect width="50" height="67" rx="5" fill="#203AD1"/>
<path d="M64.3701 44L37.5 17.1299L10.6299 44L37.5 70.8701L64.3701 44Z" fill="#132486"/>
<path d="M24.166 37.18L14.476 21.942H20.366L30.284 37.18H24.166ZM17.896 33.456C15.312 33.456 13.032 32.8733 11.056 31.708C9.08 30.5427 7.53467 28.934 6.42 26.882C5.30533 24.8047 4.748 22.4107 4.748 19.7C4.748 16.9893 5.30533 14.608 6.42 12.556C7.53467 10.4787 9.08 8.85733 11.056 7.692C13.032 6.52667 15.312 5.944 17.896 5.944C20.5053 5.944 22.798 6.52667 24.774 7.692C26.75 8.85733 28.2827 10.4787 29.372 12.556C30.4867 14.608 31.044 16.9893 31.044 19.7C31.044 22.4107 30.4867 24.8047 29.372 26.882C28.2827 28.934 26.75 30.5427 24.774 31.708C22.798 32.8733 20.5053 33.456 17.896 33.456ZM17.896 28.858C19.5173 28.858 20.9107 28.4907 22.076 27.756C23.2667 26.996 24.1913 25.932 24.85 24.564C25.5087 23.196 25.838 21.5747 25.838 19.7C25.838 17.8 25.5087 16.1787 24.85 14.836C24.1913 13.468 23.2667 12.4167 22.076 11.682C20.9107 10.9473 19.5173 10.58 17.896 10.58C16.3 10.58 14.9067 10.9473 13.716 11.682C12.5253 12.4167 11.6007 13.468 10.942 14.836C10.2833 16.1787 9.954 17.8 9.954 19.7C9.954 21.5747 10.2833 23.196 10.942 24.564C11.6007 25.932 12.5253 26.996 13.716 27.756C14.9067 28.4907 16.3 28.858 17.896 28.858Z" fill="white"/>
</g>
<rect x="0.5" y="0.5" width="49" height="66" rx="4.5" stroke="#5168F1"/>
<defs>
<clipPath id="clip0_2_594">
<rect width="50" height="67" rx="5" fill="white"/>
</clipPath>
</defs>
</svg>
