<svg width="1569" height="152" viewBox="0 0 1569 152" fill="none" xmlns="http://www.w3.org/2000/svg">
<path d="M238.17 124.122C231.997 124.122 226.603 122.719 221.988 119.913C217.374 117.107 213.788 113.178 211.231 108.127C208.675 103.076 207.396 97.1834 207.396 90.4486C207.396 83.7762 208.675 77.8833 211.231 72.7698C213.85 67.6564 217.561 63.6654 222.362 60.7969C227.226 57.8661 232.963 56.4006 239.574 56.4006C246.994 56.4006 253.199 58.209 258.188 61.8258C263.176 65.3803 266.388 70.3378 267.822 76.6985H257.159C256.223 73.0816 254.259 70.2443 251.266 68.1865C248.273 66.0663 244.344 65.0062 239.48 65.0062C234.865 65.0062 230.843 66.0351 227.414 68.0929C224.046 70.1508 221.458 73.0816 219.65 76.8855C217.841 80.6894 216.937 85.2105 216.937 90.4486C216.937 95.7491 217.841 100.301 219.65 104.105C221.458 107.909 224.015 110.809 227.32 112.804C230.625 114.8 234.429 115.798 238.732 115.798C245.342 115.798 250.299 113.896 253.604 110.092C256.972 106.288 258.936 101.206 259.497 94.8449H241.444V87.6425H268.945V123H260.433L259.591 112.991C258.094 115.423 256.348 117.481 254.353 119.165C252.419 120.786 250.143 122.033 247.524 122.906C244.905 123.717 241.787 124.122 238.17 124.122ZM296.508 123V65.1932H277.145V57.5231H325.318V65.1932H305.862V123H296.508ZM361.24 124.122C354.942 124.122 349.392 122.719 344.59 119.913C339.851 117.045 336.109 113.085 333.366 108.034C330.684 102.92 329.343 96.9963 329.343 90.2615C329.343 83.5891 330.684 77.7274 333.366 72.6763C336.109 67.5629 339.851 63.5719 344.59 60.7034C349.392 57.8349 354.942 56.4006 361.24 56.4006C367.663 56.4006 373.275 57.8349 378.077 60.7034C382.879 63.5719 386.589 67.5629 389.208 72.6763C391.889 77.7274 393.23 83.5891 393.23 90.2615C393.23 96.9963 391.889 102.92 389.208 108.034C386.589 113.085 382.879 117.045 378.077 119.913C373.275 122.719 367.663 124.122 361.24 124.122ZM361.334 115.798C365.823 115.798 369.752 114.769 373.119 112.711C376.487 110.653 379.075 107.722 380.883 103.918C382.754 100.114 383.689 95.5621 383.689 90.2615C383.689 84.961 382.754 80.4088 380.883 76.6049C379.075 72.801 376.487 69.9013 373.119 67.9058C369.752 65.848 365.823 64.8191 361.334 64.8191C356.844 64.8191 352.915 65.848 349.548 67.9058C346.18 69.9013 343.561 72.801 341.69 76.6049C339.82 80.4088 338.884 84.961 338.884 90.2615C338.884 95.5621 339.82 100.114 341.69 103.918C343.561 107.722 346.18 110.653 349.548 112.711C352.915 114.769 356.844 115.798 361.334 115.798ZM425.907 124.122C421.106 124.122 416.896 123.281 413.28 121.597C409.663 119.851 406.857 117.419 404.861 114.301C402.866 111.183 401.868 107.535 401.868 103.357H411.689C411.752 105.727 412.313 107.909 413.373 109.905C414.496 111.838 416.086 113.397 418.144 114.582C420.264 115.704 422.852 116.265 425.907 116.265C428.526 116.265 430.771 115.829 432.642 114.956C434.575 114.083 436.041 112.898 437.038 111.401C438.036 109.842 438.535 108.065 438.535 106.07C438.535 103.762 438.005 101.86 436.945 100.364C435.885 98.8671 434.45 97.6511 432.642 96.7157C430.896 95.7179 428.838 94.8449 426.469 94.0966C424.161 93.3483 421.729 92.5376 419.173 91.6646C413.997 89.9809 410.13 87.7984 407.574 85.1169C405.079 82.4355 403.832 78.9434 403.832 74.6406C403.832 70.9614 404.705 67.7811 406.451 65.0997C408.197 62.3559 410.629 60.2357 413.747 58.7391C416.928 57.1801 420.669 56.4006 424.972 56.4006C429.212 56.4006 432.923 57.1801 436.103 58.7391C439.283 60.298 441.778 62.4494 443.586 65.1932C445.394 67.937 446.299 71.1485 446.299 74.8277H436.384C436.384 73.144 435.947 71.4915 435.074 69.8702C434.201 68.2488 432.891 66.9393 431.145 65.9415C429.399 64.8814 427.248 64.3514 424.691 64.3514C422.571 64.289 420.669 64.632 418.985 65.3803C417.302 66.1286 415.992 67.2199 415.057 68.6542C414.121 70.0884 413.654 71.8033 413.654 73.7988C413.654 75.7943 414.059 77.4156 414.87 78.6628C415.743 79.8476 416.99 80.8765 418.611 81.7495C420.233 82.6226 422.103 83.4332 424.224 84.1815C426.406 84.8675 428.807 85.647 431.426 86.52C434.669 87.5801 437.537 88.8896 440.032 90.4486C442.588 91.9452 444.584 93.9095 446.018 96.3415C447.515 98.7112 448.263 101.767 448.263 105.508C448.263 108.751 447.421 111.775 445.737 114.582C444.054 117.388 441.559 119.695 438.254 121.503C434.949 123.249 430.834 124.122 425.907 124.122ZM478.374 123C475.381 123 472.793 122.532 470.611 121.597C468.428 120.662 466.744 119.103 465.56 116.92C464.375 114.737 463.782 111.775 463.782 108.034V83.8074H455.644V75.8566H463.782L464.905 64.0708H473.136V75.8566H486.512V83.8074H473.136V108.127C473.136 110.809 473.697 112.648 474.82 113.646C475.942 114.582 477.875 115.049 480.619 115.049H486.044V123H478.374ZM514.132 124.122C510.452 124.122 507.241 123.374 504.497 121.878C501.816 120.381 499.727 118.136 498.23 115.143C496.796 112.15 496.079 108.377 496.079 103.825V75.8566H505.432V102.796C505.432 107.223 506.399 110.559 508.332 112.804C510.265 115.049 513.04 116.172 516.657 116.172C519.089 116.172 521.272 115.579 523.205 114.394C525.2 113.21 526.759 111.495 527.882 109.25C529.004 107.005 529.565 104.261 529.565 101.018V75.8566H538.919V123H530.594L529.94 114.956C528.505 117.824 526.416 120.069 523.672 121.69C520.929 123.312 517.748 124.122 514.132 124.122ZM572.679 124.122C568.189 124.122 564.229 123.062 560.799 120.942C557.369 118.76 554.688 115.829 552.755 112.15C550.884 108.408 549.949 104.168 549.949 99.4283C549.949 94.6267 550.884 90.3863 552.755 86.7071C554.688 83.0279 557.369 80.1282 560.799 78.008C564.291 75.8254 568.282 74.7342 572.772 74.7342C576.451 74.7342 579.694 75.4825 582.5 76.9791C585.306 78.4133 587.489 80.4712 589.048 83.1526V55.6523H598.402V123H589.983L589.048 115.704C588.112 117.138 586.896 118.51 585.4 119.82C583.903 121.067 582.095 122.096 579.975 122.906C577.854 123.717 575.422 124.122 572.679 124.122ZM574.175 115.985C577.106 115.985 579.694 115.299 581.939 113.927C584.184 112.555 585.899 110.622 587.084 108.127C588.331 105.633 588.954 102.733 588.954 99.4283C588.954 96.1233 588.331 93.2548 587.084 90.8228C585.899 88.3284 584.184 86.3953 581.939 85.0234C579.694 83.5891 577.106 82.872 574.175 82.872C571.369 82.872 568.844 83.5891 566.599 85.0234C564.354 86.3953 562.608 88.3284 561.36 90.8228C560.113 93.2548 559.49 96.1233 559.49 99.4283C559.49 102.733 560.113 105.633 561.36 108.127C562.608 110.622 564.354 112.555 566.599 113.927C568.844 115.299 571.369 115.985 574.175 115.985ZM611.847 123V75.8566H621.201V123H611.847ZM616.618 66.9705C614.809 66.9705 613.313 66.4092 612.128 65.2868C611.005 64.1643 610.444 62.73 610.444 60.984C610.444 59.3003 611.005 57.9284 612.128 56.8683C613.313 55.7458 614.809 55.1846 616.618 55.1846C618.364 55.1846 619.829 55.7458 621.014 56.8683C622.199 57.9284 622.791 59.3003 622.791 60.984C622.791 62.73 622.199 64.1643 621.014 65.2868C619.829 66.4092 618.364 66.9705 616.618 66.9705ZM656.091 124.122C651.663 124.122 647.672 123.094 644.118 121.036C640.626 118.978 637.851 116.109 635.793 112.43C633.797 108.689 632.8 104.386 632.8 99.5218C632.8 94.5331 633.829 90.1992 635.886 86.52C637.944 82.7785 640.75 79.8788 644.305 77.8209C647.859 75.7631 651.85 74.7342 656.278 74.7342C660.768 74.7342 664.759 75.7631 668.251 77.8209C671.743 79.8788 674.487 82.7473 676.482 86.4265C678.54 90.1056 679.569 94.4396 679.569 99.4283C679.569 104.417 678.54 108.751 676.482 112.43C674.487 116.109 671.712 118.978 668.157 121.036C664.603 123.094 660.581 124.122 656.091 124.122ZM656.091 116.078C658.648 116.078 660.955 115.455 663.013 114.207C665.133 112.96 666.817 111.121 668.064 108.689C669.373 106.194 670.028 103.107 670.028 99.4283C670.028 95.7491 669.404 92.6935 668.157 90.2615C666.91 87.7672 665.226 85.8964 663.106 84.6492C661.048 83.4021 658.772 82.7785 656.278 82.7785C653.784 82.7785 651.476 83.4021 649.356 84.6492C647.236 85.8964 645.521 87.7672 644.211 90.2615C642.964 92.6935 642.341 95.7491 642.341 99.4283C642.341 103.107 642.964 106.194 644.211 108.689C645.521 111.121 647.205 112.96 649.262 114.207C651.383 115.455 653.659 116.078 656.091 116.078Z" fill="white"/>
<path d="M791.5 117.9C786.35 117.9 781.9 116.775 778.15 114.525C774.45 112.225 771.575 109.05 769.525 105C767.525 100.9 766.525 96.15 766.525 90.75C766.525 85.4 767.525 80.675 769.525 76.575C771.575 72.475 774.45 69.3 778.15 67.05C781.9 64.75 786.35 63.6 791.5 63.6C797.65 63.6 802.625 65.075 806.425 68.025C810.275 70.975 812.725 75.125 813.775 80.475H805.525C804.775 77.375 803.225 74.9 800.875 73.05C798.575 71.2 795.45 70.275 791.5 70.275C787.95 70.275 784.875 71.1 782.275 72.75C779.675 74.4 777.675 76.75 776.275 79.8C774.875 82.85 774.175 86.5 774.175 90.75C774.175 95 774.875 98.675 776.275 101.775C777.675 104.825 779.675 107.175 782.275 108.825C784.875 110.425 787.95 111.225 791.5 111.225C795.45 111.225 798.575 110.35 800.875 108.6C803.225 106.8 804.775 104.375 805.525 101.325H813.775C812.725 106.525 810.275 110.6 806.425 113.55C802.625 116.45 797.65 117.9 791.5 117.9ZM822.372 117V63H829.872V117H822.372ZM840.695 117V79.2H848.195V117H840.695ZM844.52 72.075C843.07 72.075 841.87 71.625 840.92 70.725C840.02 69.825 839.57 68.675 839.57 67.275C839.57 65.925 840.02 64.825 840.92 63.975C841.87 63.075 843.07 62.625 844.52 62.625C845.92 62.625 847.095 63.075 848.045 63.975C848.995 64.825 849.47 65.925 849.47 67.275C849.47 68.675 848.995 69.825 848.045 70.725C847.095 71.625 845.92 72.075 844.52 72.075ZM876.02 117.9C872.42 117.9 869.22 117.075 866.42 115.425C863.62 113.775 861.42 111.475 859.82 108.525C858.27 105.575 857.495 102.15 857.495 98.25C857.495 94.25 858.27 90.775 859.82 87.825C861.42 84.825 863.62 82.5 866.42 80.85C869.22 79.15 872.47 78.3 876.17 78.3C879.87 78.3 883.045 79.125 885.695 80.775C888.345 82.425 890.395 84.625 891.845 87.375C893.295 90.075 894.02 93.075 894.02 96.375C894.02 96.875 893.995 97.425 893.945 98.025C893.945 98.575 893.92 99.2 893.87 99.9H862.97V94.575H886.52C886.37 91.425 885.32 88.975 883.37 87.225C881.42 85.425 878.995 84.525 876.095 84.525C874.045 84.525 872.17 85 870.47 85.95C868.77 86.85 867.395 88.2 866.345 90C865.345 91.75 864.845 93.975 864.845 96.675V98.775C864.845 101.575 865.345 103.95 866.345 105.9C867.395 107.8 868.77 109.25 870.47 110.25C872.17 111.2 874.02 111.675 876.02 111.675C878.42 111.675 880.395 111.15 881.945 110.1C883.495 109.05 884.645 107.625 885.395 105.825H892.895C892.245 108.125 891.145 110.2 889.595 112.05C888.045 113.85 886.12 115.275 883.82 116.325C881.57 117.375 878.97 117.9 876.02 117.9ZM902.353 117V79.2H909.103L909.553 85.65C910.753 83.4 912.453 81.625 914.653 80.325C916.853 78.975 919.378 78.3 922.228 78.3C925.228 78.3 927.803 78.9 929.953 80.1C932.103 81.3 933.778 83.125 934.978 85.575C936.178 87.975 936.778 91 936.778 94.65V117H929.278V95.4C929.278 91.9 928.503 89.25 926.953 87.45C925.403 85.65 923.153 84.75 920.203 84.75C918.253 84.75 916.503 85.225 914.953 86.175C913.403 87.075 912.153 88.425 911.203 90.225C910.303 92.025 909.853 94.225 909.853 96.825V117H902.353ZM961.971 117C959.571 117 957.496 116.625 955.746 115.875C953.996 115.125 952.646 113.875 951.696 112.125C950.746 110.375 950.271 108 950.271 105V85.575H943.746V79.2H950.271L951.171 69.75H957.771V79.2H968.496V85.575H957.771V105.075C957.771 107.225 958.221 108.7 959.121 109.5C960.021 110.25 961.571 110.625 963.771 110.625H968.121V117H961.971ZM1013.51 117.9C1009.66 117.9 1006.28 117.225 1003.38 115.875C1000.48 114.475 998.231 112.525 996.631 110.025C995.031 107.525 994.231 104.6 994.231 101.25H1002.11C1002.16 103.15 1002.61 104.9 1003.46 106.5C1004.36 108.05 1005.63 109.3 1007.28 110.25C1008.98 111.15 1011.06 111.6 1013.51 111.6C1015.61 111.6 1017.41 111.25 1018.91 110.55C1020.46 109.85 1021.63 108.9 1022.43 107.7C1023.23 106.45 1023.63 105.025 1023.63 103.425C1023.63 101.575 1023.21 100.05 1022.36 98.85C1021.51 97.65 1020.36 96.675 1018.91 95.925C1017.51 95.125 1015.86 94.425 1013.96 93.825C1012.11 93.225 1010.16 92.575 1008.11 91.875C1003.96 90.525 1000.86 88.775 998.806 86.625C996.806 84.475 995.806 81.675 995.806 78.225C995.806 75.275 996.506 72.725 997.906 70.575C999.306 68.375 1001.26 66.675 1003.76 65.475C1006.31 64.225 1009.31 63.6 1012.76 63.6C1016.16 63.6 1019.13 64.225 1021.68 65.475C1024.23 66.725 1026.23 68.45 1027.68 70.65C1029.13 72.85 1029.86 75.425 1029.86 78.375H1021.91C1021.91 77.025 1021.56 75.7 1020.86 74.4C1020.16 73.1 1019.11 72.05 1017.71 71.25C1016.31 70.4 1014.58 69.975 1012.53 69.975C1010.83 69.925 1009.31 70.2 1007.96 70.8C1006.61 71.4 1005.56 72.275 1004.81 73.425C1004.06 74.575 1003.68 75.95 1003.68 77.55C1003.68 79.15 1004.01 80.45 1004.66 81.45C1005.36 82.4 1006.36 83.225 1007.66 83.925C1008.96 84.625 1010.46 85.275 1012.16 85.875C1013.91 86.425 1015.83 87.05 1017.93 87.75C1020.53 88.6 1022.83 89.65 1024.83 90.9C1026.88 92.1 1028.48 93.675 1029.63 95.625C1030.83 97.525 1031.43 99.975 1031.43 102.975C1031.43 105.575 1030.76 108 1029.41 110.25C1028.06 112.5 1026.06 114.35 1023.41 115.8C1020.76 117.2 1017.46 117.9 1013.51 117.9ZM1040.5 117V79.2H1048V117H1040.5ZM1044.33 72.075C1042.88 72.075 1041.68 71.625 1040.73 70.725C1039.83 69.825 1039.38 68.675 1039.38 67.275C1039.38 65.925 1039.83 64.825 1040.73 63.975C1041.68 63.075 1042.88 62.625 1044.33 62.625C1045.73 62.625 1046.9 63.075 1047.85 63.975C1048.8 64.825 1049.28 65.925 1049.28 67.275C1049.28 68.675 1048.8 69.825 1047.85 70.725C1046.9 71.625 1045.73 72.075 1044.33 72.075ZM1075.53 117.9C1071.93 117.9 1068.75 117.05 1066 115.35C1063.25 113.6 1061.1 111.25 1059.55 108.3C1058.05 105.3 1057.3 101.9 1057.3 98.1C1057.3 94.25 1058.05 90.85 1059.55 87.9C1061.1 84.95 1063.25 82.625 1066 80.925C1068.8 79.175 1072 78.3 1075.6 78.3C1078.55 78.3 1081.15 78.9 1083.4 80.1C1085.65 81.25 1087.4 82.9 1088.65 85.05V63H1096.15V117H1089.4L1088.65 111.15C1087.9 112.3 1086.93 113.4 1085.73 114.45C1084.53 115.45 1083.08 116.275 1081.38 116.925C1079.68 117.575 1077.73 117.9 1075.53 117.9ZM1076.73 111.375C1079.08 111.375 1081.15 110.825 1082.95 109.725C1084.75 108.625 1086.13 107.075 1087.08 105.075C1088.08 103.075 1088.58 100.75 1088.58 98.1C1088.58 95.45 1088.08 93.15 1087.08 91.2C1086.13 89.2 1084.75 87.65 1082.95 86.55C1081.15 85.4 1079.08 84.825 1076.73 84.825C1074.48 84.825 1072.45 85.4 1070.65 86.55C1068.85 87.65 1067.45 89.2 1066.45 91.2C1065.45 93.15 1064.95 95.45 1064.95 98.1C1064.95 100.75 1065.45 103.075 1066.45 105.075C1067.45 107.075 1068.85 108.625 1070.65 109.725C1072.45 110.825 1074.48 111.375 1076.73 111.375ZM1123.51 117.9C1119.91 117.9 1116.71 117.075 1113.91 115.425C1111.11 113.775 1108.91 111.475 1107.31 108.525C1105.76 105.575 1104.98 102.15 1104.98 98.25C1104.98 94.25 1105.76 90.775 1107.31 87.825C1108.91 84.825 1111.11 82.5 1113.91 80.85C1116.71 79.15 1119.96 78.3 1123.66 78.3C1127.36 78.3 1130.53 79.125 1133.18 80.775C1135.83 82.425 1137.88 84.625 1139.33 87.375C1140.78 90.075 1141.51 93.075 1141.51 96.375C1141.51 96.875 1141.48 97.425 1141.43 98.025C1141.43 98.575 1141.41 99.2 1141.36 99.9H1110.46V94.575H1134.01C1133.86 91.425 1132.81 88.975 1130.86 87.225C1128.91 85.425 1126.48 84.525 1123.58 84.525C1121.53 84.525 1119.66 85 1117.96 85.95C1116.26 86.85 1114.88 88.2 1113.83 90C1112.83 91.75 1112.33 93.975 1112.33 96.675V98.775C1112.33 101.575 1112.83 103.95 1113.83 105.9C1114.88 107.8 1116.26 109.25 1117.96 110.25C1119.66 111.2 1121.51 111.675 1123.51 111.675C1125.91 111.675 1127.88 111.15 1129.43 110.1C1130.98 109.05 1132.13 107.625 1132.88 105.825H1140.38C1139.73 108.125 1138.63 110.2 1137.08 112.05C1135.53 113.85 1133.61 115.275 1131.31 116.325C1129.06 117.375 1126.46 117.9 1123.51 117.9ZM1192.13 117.9C1187.18 117.9 1182.85 116.775 1179.15 114.525C1175.45 112.275 1172.58 109.125 1170.53 105.075C1168.48 101.025 1167.45 96.3 1167.45 90.9C1167.45 85.55 1168.48 80.825 1170.53 76.725C1172.63 72.625 1175.6 69.425 1179.45 67.125C1183.35 64.775 1187.95 63.6 1193.25 63.6C1199.2 63.6 1204.18 65.05 1208.18 67.95C1212.18 70.8 1214.75 74.775 1215.9 79.875H1207.35C1206.6 76.975 1205.03 74.7 1202.63 73.05C1200.23 71.35 1197.08 70.5 1193.18 70.5C1189.48 70.5 1186.25 71.325 1183.5 72.975C1180.8 74.625 1178.73 76.975 1177.28 80.025C1175.83 83.075 1175.1 86.7 1175.1 90.9C1175.1 95.15 1175.83 98.8 1177.28 101.85C1178.73 104.9 1180.78 107.225 1183.43 108.825C1186.08 110.425 1189.13 111.225 1192.58 111.225C1197.88 111.225 1201.85 109.7 1204.5 106.65C1207.2 103.6 1208.78 99.525 1209.23 94.425H1194.75V88.65H1216.8V117H1209.98L1209.3 108.975C1208.1 110.925 1206.7 112.575 1205.1 113.925C1203.55 115.225 1201.73 116.225 1199.63 116.925C1197.53 117.575 1195.03 117.9 1192.13 117.9ZM1238.9 117V70.65H1223.38V64.5H1262V70.65H1246.4V117H1238.9ZM1290.81 117.9C1285.76 117.9 1281.31 116.775 1277.46 114.525C1273.66 112.225 1270.66 109.05 1268.46 105C1266.31 100.9 1265.23 96.15 1265.23 90.75C1265.23 85.4 1266.31 80.7 1268.46 76.65C1270.66 72.55 1273.66 69.35 1277.46 67.05C1281.31 64.75 1285.76 63.6 1290.81 63.6C1295.96 63.6 1300.46 64.75 1304.31 67.05C1308.16 69.35 1311.13 72.55 1313.23 76.65C1315.38 80.7 1316.46 85.4 1316.46 90.75C1316.46 96.15 1315.38 100.9 1313.23 105C1311.13 109.05 1308.16 112.225 1304.31 114.525C1300.46 116.775 1295.96 117.9 1290.81 117.9ZM1290.88 111.225C1294.48 111.225 1297.63 110.4 1300.33 108.75C1303.03 107.1 1305.11 104.75 1306.56 101.7C1308.06 98.65 1308.81 95 1308.81 90.75C1308.81 86.5 1308.06 82.85 1306.56 79.8C1305.11 76.75 1303.03 74.425 1300.33 72.825C1297.63 71.175 1294.48 70.35 1290.88 70.35C1287.28 70.35 1284.13 71.175 1281.43 72.825C1278.73 74.425 1276.63 76.75 1275.13 79.8C1273.63 82.85 1272.88 86.5 1272.88 90.75C1272.88 95 1273.63 98.65 1275.13 101.7C1276.63 104.75 1278.73 107.1 1281.43 108.75C1284.13 110.4 1287.28 111.225 1290.88 111.225ZM1361.85 117.9C1358 117.9 1354.62 117.225 1351.72 115.875C1348.82 114.475 1346.57 112.525 1344.97 110.025C1343.37 107.525 1342.57 104.6 1342.57 101.25H1350.45C1350.5 103.15 1350.95 104.9 1351.8 106.5C1352.7 108.05 1353.97 109.3 1355.62 110.25C1357.32 111.15 1359.4 111.6 1361.85 111.6C1363.95 111.6 1365.75 111.25 1367.25 110.55C1368.8 109.85 1369.97 108.9 1370.77 107.7C1371.57 106.45 1371.97 105.025 1371.97 103.425C1371.97 101.575 1371.55 100.05 1370.7 98.85C1369.85 97.65 1368.7 96.675 1367.25 95.925C1365.85 95.125 1364.2 94.425 1362.3 93.825C1360.45 93.225 1358.5 92.575 1356.45 91.875C1352.3 90.525 1349.2 88.775 1347.15 86.625C1345.15 84.475 1344.15 81.675 1344.15 78.225C1344.15 75.275 1344.85 72.725 1346.25 70.575C1347.65 68.375 1349.6 66.675 1352.1 65.475C1354.65 64.225 1357.65 63.6 1361.1 63.6C1364.5 63.6 1367.47 64.225 1370.02 65.475C1372.57 66.725 1374.57 68.45 1376.02 70.65C1377.47 72.85 1378.2 75.425 1378.2 78.375H1370.25C1370.25 77.025 1369.9 75.7 1369.2 74.4C1368.5 73.1 1367.45 72.05 1366.05 71.25C1364.65 70.4 1362.92 69.975 1360.87 69.975C1359.17 69.925 1357.65 70.2 1356.3 70.8C1354.95 71.4 1353.9 72.275 1353.15 73.425C1352.4 74.575 1352.02 75.95 1352.02 77.55C1352.02 79.15 1352.35 80.45 1353 81.45C1353.7 82.4 1354.7 83.225 1356 83.925C1357.3 84.625 1358.8 85.275 1360.5 85.875C1362.25 86.425 1364.17 87.05 1366.27 87.75C1368.87 88.6 1371.17 89.65 1373.17 90.9C1375.22 92.1 1376.82 93.675 1377.97 95.625C1379.17 97.525 1379.77 99.975 1379.77 102.975C1379.77 105.575 1379.1 108 1377.75 110.25C1376.4 112.5 1374.4 114.35 1371.75 115.8C1369.1 117.2 1365.8 117.9 1361.85 117.9ZM1403.91 117C1401.51 117 1399.44 116.625 1397.69 115.875C1395.94 115.125 1394.59 113.875 1393.64 112.125C1392.69 110.375 1392.21 108 1392.21 105V85.575H1385.69V79.2H1392.21L1393.11 69.75H1399.71V79.2H1410.44V85.575H1399.71V105.075C1399.71 107.225 1400.16 108.7 1401.06 109.5C1401.96 110.25 1403.51 110.625 1405.71 110.625H1410.06V117H1403.91ZM1432.59 117.9C1429.64 117.9 1427.06 117.3 1424.86 116.1C1422.71 114.9 1421.04 113.1 1419.84 110.7C1418.69 108.3 1418.11 105.275 1418.11 101.625V79.2H1425.61V100.8C1425.61 104.35 1426.39 107.025 1427.94 108.825C1429.49 110.625 1431.71 111.525 1434.61 111.525C1436.56 111.525 1438.31 111.05 1439.86 110.1C1441.46 109.15 1442.71 107.775 1443.61 105.975C1444.51 104.175 1444.96 101.975 1444.96 99.375V79.2H1452.46V117H1445.79L1445.26 110.55C1444.11 112.85 1442.44 114.65 1440.24 115.95C1438.04 117.25 1435.49 117.9 1432.59 117.9ZM1479.53 117.9C1475.93 117.9 1472.75 117.05 1470 115.35C1467.25 113.6 1465.1 111.25 1463.55 108.3C1462.05 105.3 1461.3 101.9 1461.3 98.1C1461.3 94.25 1462.05 90.85 1463.55 87.9C1465.1 84.95 1467.25 82.625 1470 80.925C1472.8 79.175 1476 78.3 1479.6 78.3C1482.55 78.3 1485.15 78.9 1487.4 80.1C1489.65 81.25 1491.4 82.9 1492.65 85.05V63H1500.15V117H1493.4L1492.65 111.15C1491.9 112.3 1490.93 113.4 1489.73 114.45C1488.53 115.45 1487.08 116.275 1485.38 116.925C1483.68 117.575 1481.73 117.9 1479.53 117.9ZM1480.73 111.375C1483.08 111.375 1485.15 110.825 1486.95 109.725C1488.75 108.625 1490.13 107.075 1491.08 105.075C1492.08 103.075 1492.58 100.75 1492.58 98.1C1492.58 95.45 1492.08 93.15 1491.08 91.2C1490.13 89.2 1488.75 87.65 1486.95 86.55C1485.15 85.4 1483.08 84.825 1480.73 84.825C1478.48 84.825 1476.45 85.4 1474.65 86.55C1472.85 87.65 1471.45 89.2 1470.45 91.2C1469.45 93.15 1468.95 95.45 1468.95 98.1C1468.95 100.75 1469.45 103.075 1470.45 105.075C1471.45 107.075 1472.85 108.625 1474.65 109.725C1476.45 110.825 1478.48 111.375 1480.73 111.375ZM1510.93 117V79.2H1518.43V117H1510.93ZM1514.76 72.075C1513.31 72.075 1512.11 71.625 1511.16 70.725C1510.26 69.825 1509.81 68.675 1509.81 67.275C1509.81 65.925 1510.26 64.825 1511.16 63.975C1512.11 63.075 1513.31 62.625 1514.76 62.625C1516.16 62.625 1517.33 63.075 1518.28 63.975C1519.23 64.825 1519.71 65.925 1519.71 67.275C1519.71 68.675 1519.23 69.825 1518.28 70.725C1517.33 71.625 1516.16 72.075 1514.76 72.075ZM1546.41 117.9C1542.86 117.9 1539.66 117.075 1536.81 115.425C1534.01 113.775 1531.78 111.475 1530.13 108.525C1528.53 105.525 1527.73 102.075 1527.73 98.175C1527.73 94.175 1528.56 90.7 1530.21 87.75C1531.86 84.75 1534.11 82.425 1536.96 80.775C1539.81 79.125 1543.01 78.3 1546.56 78.3C1550.16 78.3 1553.36 79.125 1556.16 80.775C1558.96 82.425 1561.16 84.725 1562.76 87.675C1564.41 90.625 1565.23 94.1 1565.23 98.1C1565.23 102.1 1564.41 105.575 1562.76 108.525C1561.16 111.475 1558.93 113.775 1556.08 115.425C1553.23 117.075 1550.01 117.9 1546.41 117.9ZM1546.41 111.45C1548.46 111.45 1550.31 110.95 1551.96 109.95C1553.66 108.95 1555.01 107.475 1556.01 105.525C1557.06 103.525 1557.58 101.05 1557.58 98.1C1557.58 95.15 1557.08 92.7 1556.08 90.75C1555.08 88.75 1553.73 87.25 1552.03 86.25C1550.38 85.25 1548.56 84.75 1546.56 84.75C1544.56 84.75 1542.71 85.25 1541.01 86.25C1539.31 87.25 1537.93 88.75 1536.88 90.75C1535.88 92.7 1535.38 95.15 1535.38 98.1C1535.38 101.05 1535.88 103.525 1536.88 105.525C1537.93 107.475 1539.28 108.95 1540.93 109.95C1542.63 110.95 1544.46 111.45 1546.41 111.45Z" fill="#919191"/>
<path d="M94.5775 94.7173C106.15 87.9212 113.81 77.8317 119.779 66.0127C122.189 67.9865 123.558 70.3957 125.183 72.5571C133.694 83.874 142.136 95.243 150.602 106.594C152.582 109.25 152.616 109.484 149.684 111.077C128.283 122.704 107.17 122.231 86.4082 109.405C82.7271 107.131 79.3845 104.395 76.0945 101.345C74.0473 103.009 72.0881 104.691 70.0376 106.252C57.7187 115.634 43.9039 120.321 28.3629 119.167C19.1278 118.481 10.3775 115.978 2.38011 111.155C-0.61272 109.35 -0.615631 109.253 1.43834 106.505C10.9881 93.7305 20.533 80.9518 30.0899 68.1821C30.6136 67.4824 31.0106 66.6229 31.9738 66.3525C32.8864 66.7768 33.0876 67.7167 33.5005 68.4836C38.6187 77.989 44.9821 86.4205 54.0018 92.6036C59.5042 96.3756 65.52 98.7717 72.1396 99.6204C72.4327 99.658 72.7362 99.6509 73.0311 99.624C73.2425 99.6047 73.4477 99.5174 73.9145 99.3895C72.2861 97.3465 70.695 95.4415 69.2024 93.4619C61.7018 83.5141 57.4856 72.3552 56.5826 59.8778C55.6094 46.4313 59.0798 33.905 64.0643 21.6721C66.8815 14.758 70.3008 8.13496 74.3076 1.82673C74.7415 1.14361 75.058 0.357543 75.91 0C76.8721 0.110155 77.1618 0.972047 77.5696 1.63185C85.3432 14.208 91.4045 27.5183 94.2236 42.117C98.3388 63.4276 93.2313 82.2547 78.6702 98.4247C78.4756 98.6408 78.3065 98.8798 78.1148 99.1216C80.7502 100.21 87.5775 98.3826 94.5775 94.7173Z" fill="white"/>
<path d="M105.702 151.92C85.8247 152 66.0731 152 46.3216 152C46.262 151.802 46.2024 151.603 46.1428 151.405C61.6543 142.528 71.6717 129.715 75.6218 112.643C76.8855 112.784 76.777 113.725 76.9028 114.33C78.9467 124.168 84.0651 132.403 90.8608 139.772C94.9135 144.167 99.4177 148.008 104.952 150.588C105.451 150.82 106.179 151.002 105.702 151.92Z" fill="white"/>
</svg>
